<svg width="292" height="67" viewBox="0 0 292 67" fill="none" xmlns="http://www.w3.org/2000/svg">
    <rect width="292" height="67" fill="url(#paint0_linear_0_1)"/>
    <path d="M39.248 39.7969L48.5645 19.4062H53.9434L41.1641 45H37.5605L39.248 39.7969ZM36.6816 19.4062L39.6699 40.2188L39.7578 45H36.3477L31.6191 19.4062H36.6816ZM59.9551 25.9805L56.668 45H52.1152L55.4199 25.9805H59.9551ZM55.9824 21.0938C55.9707 20.3555 56.2109 19.7578 56.7031 19.3008C57.207 18.832 57.8223 18.5918 58.5488 18.5801C59.2402 18.5684 59.8379 18.7793 60.3418 19.2129C60.8574 19.6348 61.1152 20.209 61.1152 20.9355C61.127 21.6621 60.8809 22.2539 60.377 22.7109C59.873 23.168 59.2637 23.4023 58.5488 23.4141C57.8574 23.4258 57.2598 23.2207 56.7559 22.7988C56.252 22.377 55.9941 21.8086 55.9824 21.0938ZM67.9355 30.3047L65.3867 45H60.834L64.1387 25.9805H68.3926L67.9355 30.3047ZM66.4766 34.8047L65.2285 34.8223C65.3691 33.6855 65.6387 32.5664 66.0371 31.4648C66.4355 30.3516 66.9746 29.3496 67.6543 28.459C68.3457 27.5684 69.1836 26.8652 70.168 26.3496C71.1523 25.834 72.2949 25.5879 73.5957 25.6113C74.6387 25.6465 75.5 25.8633 76.1797 26.2617C76.8711 26.6602 77.4043 27.1934 77.7793 27.8613C78.1543 28.5176 78.3945 29.2734 78.5 30.1289C78.6172 30.9844 78.623 31.875 78.5176 32.8008L76.4961 45H71.9258L73.9824 32.748C74.0527 32.0918 74.0293 31.5059 73.9121 30.9902C73.8066 30.4746 73.5664 30.0703 73.1914 29.7773C72.8164 29.4727 72.2656 29.3145 71.5391 29.3027C70.7656 29.2793 70.0859 29.4258 69.5 29.7422C68.9141 30.0586 68.416 30.4863 68.0059 31.0254C67.5957 31.5645 67.2676 32.168 67.0215 32.8359C66.7754 33.4922 66.5938 34.1484 66.4766 34.8047ZM102.283 40.2539C102.459 39.3281 102.307 38.5781 101.826 38.0039C101.346 37.418 100.719 36.9609 99.9453 36.6328C99.1836 36.293 98.4395 36.0293 97.7129 35.8418C97.0215 35.666 96.3184 35.4609 95.6035 35.2266C94.9004 34.9805 94.2617 34.6641 93.6875 34.2773C93.125 33.8906 92.6914 33.4043 92.3867 32.8184C92.0938 32.2207 92.0059 31.4824 92.123 30.6035C92.2285 29.7598 92.5039 29.0273 92.9492 28.4062C93.3945 27.7852 93.9453 27.2695 94.6016 26.8594C95.2695 26.4492 95.9902 26.1445 96.7637 25.9453C97.5488 25.7344 98.3223 25.6289 99.084 25.6289C100.221 25.6289 101.258 25.8398 102.195 26.2617C103.145 26.6719 103.883 27.2871 104.41 28.1074C104.949 28.916 105.16 29.9355 105.043 31.166H103.672C103.754 30.2285 103.59 29.4492 103.18 28.8281C102.77 28.1953 102.195 27.7207 101.457 27.4043C100.719 27.0762 99.9277 26.9121 99.084 26.9121C98.2988 26.9121 97.5078 27.041 96.7109 27.2988C95.9141 27.5449 95.2168 27.9375 94.6191 28.4766C94.0332 29.0156 93.6582 29.707 93.4941 30.5508C93.377 31.2422 93.4414 31.8223 93.6875 32.291C93.9336 32.7598 94.3027 33.1465 94.7949 33.4512C95.2871 33.7441 95.8203 33.9844 96.3945 34.1719C96.9805 34.3594 97.543 34.5234 98.082 34.6641C99.043 34.9219 99.9805 35.2559 100.895 35.666C101.809 36.0762 102.535 36.6445 103.074 37.3711C103.625 38.0859 103.824 39.0293 103.672 40.2012C103.555 41.1035 103.262 41.877 102.793 42.5215C102.336 43.166 101.756 43.6992 101.053 44.1211C100.361 44.5312 99.6055 44.8359 98.7852 45.0352C97.9766 45.2461 97.1738 45.3516 96.377 45.3516C95.2754 45.3516 94.2207 45.1582 93.2129 44.7715C92.2168 44.3848 91.4141 43.793 90.8047 42.9961C90.1953 42.1992 89.9375 41.1855 90.0312 39.9551L91.4023 39.9727C91.3672 40.9453 91.5781 41.7363 92.0352 42.3457C92.5039 42.9551 93.125 43.3945 93.8984 43.6641C94.6719 43.9336 95.498 44.0684 96.377 44.0684C97.1738 44.0566 97.9941 43.9219 98.8379 43.6641C99.6934 43.3945 100.438 42.9844 101.07 42.4336C101.715 41.8711 102.119 41.1445 102.283 40.2539ZM112.514 25.9805L109.244 45H107.855L111.143 25.9805H112.514ZM111.723 20.1973C111.746 19.9043 111.875 19.6406 112.109 19.4062C112.355 19.1719 112.631 19.0547 112.936 19.0547C113.264 19.0547 113.527 19.1719 113.727 19.4062C113.938 19.6406 114.025 19.916 113.99 20.2324C113.955 20.5254 113.814 20.7832 113.568 21.0059C113.322 21.2285 113.047 21.3457 112.742 21.3574C112.426 21.3574 112.162 21.2461 111.951 21.0234C111.752 20.7891 111.676 20.5137 111.723 20.1973ZM118.912 30.041L116.311 45H114.939L118.191 25.9805H119.562L118.912 30.041ZM117.998 34.0312L117.436 33.2051C117.693 32.2324 118.068 31.2949 118.561 30.3926C119.064 29.4902 119.674 28.6816 120.389 27.9668C121.104 27.2402 121.912 26.6719 122.814 26.2617C123.729 25.8398 124.73 25.6289 125.82 25.6289C126.852 25.6289 127.713 25.8047 128.404 26.1562C129.096 26.4961 129.635 26.9766 130.021 27.5977C130.408 28.207 130.654 28.916 130.76 29.7246C130.865 30.5332 130.854 31.4062 130.725 32.3438L128.545 45H127.174L129.336 32.3613C129.5 31.3535 129.494 30.4395 129.318 29.6191C129.154 28.7871 128.768 28.125 128.158 27.6328C127.549 27.1406 126.676 26.9004 125.539 26.9121C124.555 26.9121 123.652 27.1172 122.832 27.5273C122.012 27.9375 121.279 28.4883 120.635 29.1797C120.002 29.8594 119.463 30.6211 119.018 31.4648C118.572 32.2969 118.232 33.1523 117.998 34.0312ZM130.725 32.4668L129.828 32.0977C130.098 31.1953 130.49 30.3516 131.006 29.5664C131.533 28.7695 132.154 28.0781 132.869 27.4922C133.596 26.9062 134.398 26.4492 135.277 26.1211C136.156 25.793 137.088 25.6289 138.072 25.6289C139.139 25.6289 140.018 25.8164 140.709 26.1914C141.412 26.5664 141.951 27.0762 142.326 27.7207C142.701 28.3652 142.936 29.1152 143.029 29.9707C143.123 30.8145 143.1 31.7109 142.959 32.6602L140.85 45H139.461L141.57 32.6426C141.734 31.6348 141.746 30.6914 141.605 29.8125C141.465 28.9336 141.096 28.2246 140.498 27.6855C139.912 27.1465 139.027 26.8887 137.844 26.9121C137.012 26.9238 136.221 27.0703 135.471 27.3516C134.721 27.6328 134.029 28.0254 133.396 28.5293C132.764 29.0332 132.219 29.625 131.762 30.3047C131.305 30.9727 130.959 31.6934 130.725 32.4668ZM150.271 29.6719L146.352 52.3125H144.963L149.516 25.9805H150.834L150.271 29.6719ZM162.348 35.2793L162.295 35.6484C162.107 36.7617 161.803 37.8926 161.381 39.041C160.959 40.1777 160.402 41.2266 159.711 42.1875C159.02 43.1367 158.182 43.9043 157.197 44.4902C156.213 45.0762 155.064 45.3633 153.752 45.3516C152.885 45.3516 152.059 45.1992 151.273 44.8945C150.488 44.5781 149.797 44.1387 149.199 43.5762C148.613 43.0137 148.156 42.3516 147.828 41.5898C147.512 40.8164 147.377 39.9727 147.424 39.0586L148.531 32.4492C148.777 31.5117 149.164 30.6328 149.691 29.8125C150.219 28.9922 150.852 28.2656 151.59 27.6328C152.328 26.9883 153.148 26.4902 154.051 26.1387C154.953 25.7871 155.896 25.6172 156.881 25.6289C158.205 25.6406 159.266 25.9453 160.062 26.543C160.859 27.1406 161.445 27.9258 161.82 28.8984C162.207 29.8594 162.43 30.9023 162.488 32.0273C162.547 33.1523 162.5 34.2363 162.348 35.2793ZM160.889 35.6484L160.959 35.2793C161.088 34.4355 161.146 33.5332 161.135 32.5723C161.123 31.5996 160.982 30.6914 160.713 29.8477C160.443 28.9922 159.986 28.2949 159.342 27.7559C158.709 27.2051 157.824 26.9297 156.688 26.9297C155.844 26.918 155.029 27.0645 154.244 27.3691C153.471 27.6621 152.756 28.0723 152.1 28.5996C151.443 29.127 150.875 29.7422 150.395 30.4453C149.914 31.1367 149.562 31.8926 149.34 32.7129L148.232 38.9707C148.174 39.9902 148.396 40.8867 148.9 41.6602C149.416 42.4219 150.09 43.0137 150.922 43.4355C151.766 43.8574 152.662 44.0684 153.611 44.0684C154.736 44.0801 155.715 43.8281 156.547 43.3125C157.391 42.7969 158.1 42.123 158.674 41.291C159.26 40.459 159.729 39.5508 160.08 38.5664C160.443 37.5703 160.713 36.5977 160.889 35.6484ZM171.77 18L167.111 45H165.723L170.381 18H171.77ZM180.014 45.3516C178.736 45.3516 177.635 45.082 176.709 44.543C175.783 43.9922 175.033 43.2656 174.459 42.3633C173.896 41.4492 173.51 40.4414 173.299 39.3398C173.1 38.2266 173.07 37.1016 173.211 35.9648L173.334 35.1914C173.498 34.0312 173.826 32.8887 174.318 31.7637C174.822 30.627 175.467 29.5957 176.252 28.6699C177.049 27.7441 177.969 27.0059 179.012 26.4551C180.066 25.8926 181.238 25.6172 182.527 25.6289C183.699 25.6289 184.689 25.8691 185.498 26.3496C186.307 26.8301 186.951 27.4688 187.432 28.2656C187.924 29.0625 188.252 29.959 188.416 30.9551C188.58 31.9395 188.598 32.9473 188.469 33.9785L188.311 35.1562H174.178L174.371 33.873H187.045L187.098 33.6445C187.285 32.5781 187.238 31.5293 186.957 30.498C186.688 29.4668 186.178 28.6172 185.428 27.9492C184.689 27.2695 183.711 26.9238 182.492 26.9121C181.391 26.9004 180.395 27.1406 179.504 27.6328C178.613 28.1133 177.84 28.7637 177.184 29.584C176.527 30.3926 175.988 31.2891 175.566 32.2734C175.156 33.2461 174.869 34.2188 174.705 35.1914L174.6 35.9473C174.459 36.8848 174.459 37.834 174.6 38.7949C174.752 39.7441 175.045 40.6172 175.479 41.4141C175.924 42.2109 176.527 42.8555 177.289 43.3477C178.051 43.8281 178.977 44.0742 180.066 44.0859C181.227 44.0977 182.275 43.8691 183.213 43.4004C184.162 42.9316 185.041 42.2988 185.85 41.502L186.711 42.1875C186.148 42.8672 185.516 43.4473 184.812 43.9277C184.121 44.3965 183.371 44.7539 182.562 45C181.754 45.2344 180.904 45.3516 180.014 45.3516ZM199.051 32.8184L198.875 34.1016H190.754L190.965 32.8184H199.051ZM203.691 45H202.303L205.959 23.7656C206.158 22.582 206.545 21.5332 207.119 20.6191C207.705 19.6934 208.461 18.9668 209.387 18.4395C210.324 17.9004 211.42 17.6309 212.674 17.6309C213.471 17.6309 214.244 17.7246 214.994 17.9121C215.756 18.0879 216.5 18.334 217.227 18.6504L216.875 19.8984C216.207 19.582 215.533 19.3418 214.854 19.1777C214.174 19.0137 213.459 18.9375 212.709 18.9492C211.244 18.9609 210.049 19.418 209.123 20.3203C208.209 21.2227 207.617 22.3711 207.348 23.7656L203.691 45ZM211.619 25.9805L211.426 27.2461H202.232L202.426 25.9805H211.619ZM216.805 25.9805L213.535 45H212.146L215.416 25.9805H216.805ZM225.664 18L221.006 45H219.617L224.275 18H225.664ZM233.908 45.3516C232.631 45.3516 231.529 45.082 230.604 44.543C229.678 43.9922 228.928 43.2656 228.354 42.3633C227.791 41.4492 227.404 40.4414 227.193 39.3398C226.994 38.2266 226.965 37.1016 227.105 35.9648L227.229 35.1914C227.393 34.0312 227.721 32.8887 228.213 31.7637C228.717 30.627 229.361 29.5957 230.146 28.6699C230.943 27.7441 231.863 27.0059 232.906 26.4551C233.961 25.8926 235.133 25.6172 236.422 25.6289C237.594 25.6289 238.584 25.8691 239.393 26.3496C240.201 26.8301 240.846 27.4688 241.326 28.2656C241.818 29.0625 242.146 29.959 242.311 30.9551C242.475 31.9395 242.492 32.9473 242.363 33.9785L242.205 35.1562H228.072L228.266 33.873H240.939L240.992 33.6445C241.18 32.5781 241.133 31.5293 240.852 30.498C240.582 29.4668 240.072 28.6172 239.322 27.9492C238.584 27.2695 237.605 26.9238 236.387 26.9121C235.285 26.9004 234.289 27.1406 233.398 27.6328C232.508 28.1133 231.734 28.7637 231.078 29.584C230.422 30.3926 229.883 31.2891 229.461 32.2734C229.051 33.2461 228.764 34.2188 228.6 35.1914L228.494 35.9473C228.354 36.8848 228.354 37.834 228.494 38.7949C228.646 39.7441 228.939 40.6172 229.373 41.4141C229.818 42.2109 230.422 42.8555 231.184 43.3477C231.945 43.8281 232.871 44.0742 233.961 44.0859C235.121 44.0977 236.17 43.8691 237.107 43.4004C238.057 42.9316 238.936 42.2988 239.744 41.502L240.605 42.1875C240.043 42.8672 239.41 43.4473 238.707 43.9277C238.016 44.3965 237.266 44.7539 236.457 45C235.648 45.2344 234.799 45.3516 233.908 45.3516ZM256.795 40.2539C256.971 39.3281 256.818 38.5781 256.338 38.0039C255.857 37.418 255.23 36.9609 254.457 36.6328C253.695 36.293 252.951 36.0293 252.225 35.8418C251.533 35.666 250.83 35.4609 250.115 35.2266C249.412 34.9805 248.773 34.6641 248.199 34.2773C247.637 33.8906 247.203 33.4043 246.898 32.8184C246.605 32.2207 246.518 31.4824 246.635 30.6035C246.74 29.7598 247.016 29.0273 247.461 28.4062C247.906 27.7852 248.457 27.2695 249.113 26.8594C249.781 26.4492 250.502 26.1445 251.275 25.9453C252.061 25.7344 252.834 25.6289 253.596 25.6289C254.732 25.6289 255.77 25.8398 256.707 26.2617C257.656 26.6719 258.395 27.2871 258.922 28.1074C259.461 28.916 259.672 29.9355 259.555 31.166H258.184C258.266 30.2285 258.102 29.4492 257.691 28.8281C257.281 28.1953 256.707 27.7207 255.969 27.4043C255.23 27.0762 254.439 26.9121 253.596 26.9121C252.811 26.9121 252.02 27.041 251.223 27.2988C250.426 27.5449 249.729 27.9375 249.131 28.4766C248.545 29.0156 248.17 29.707 248.006 30.5508C247.889 31.2422 247.953 31.8223 248.199 32.291C248.445 32.7598 248.814 33.1465 249.307 33.4512C249.799 33.7441 250.332 33.9844 250.906 34.1719C251.492 34.3594 252.055 34.5234 252.594 34.6641C253.555 34.9219 254.492 35.2559 255.406 35.666C256.32 36.0762 257.047 36.6445 257.586 37.3711C258.137 38.0859 258.336 39.0293 258.184 40.2012C258.066 41.1035 257.773 41.877 257.305 42.5215C256.848 43.166 256.268 43.6992 255.564 44.1211C254.873 44.5312 254.117 44.8359 253.297 45.0352C252.488 45.2461 251.686 45.3516 250.889 45.3516C249.787 45.3516 248.732 45.1582 247.725 44.7715C246.729 44.3848 245.926 43.793 245.316 42.9961C244.707 42.1992 244.449 41.1855 244.543 39.9551L245.914 39.9727C245.879 40.9453 246.09 41.7363 246.547 42.3457C247.016 42.9551 247.637 43.3945 248.41 43.6641C249.184 43.9336 250.01 44.0684 250.889 44.0684C251.686 44.0566 252.506 43.9219 253.35 43.6641C254.205 43.3945 254.949 42.9844 255.582 42.4336C256.227 41.8711 256.631 41.1445 256.795 40.2539Z" fill="white"/>
    <path d="M80.6776 42.1824L83.6695 40.455L86.6614 42.1824L86.6614 45.6371L83.6695 47.3645L80.6776 45.6371L80.6776 42.1824Z" fill="white"/>
    <path fill-rule="evenodd" clip-rule="evenodd" d="M81.4 42.5994L81.4 45.2201L83.6695 46.5304L85.939 45.2201L85.939 42.5994L83.6695 41.2891L81.4 42.5994ZM83.6695 40.455L80.6776 42.1824L80.6776 45.6371L83.6695 47.3645L86.6614 45.6371L86.6614 42.1824L83.6695 40.455Z" fill="#6FB327"/>
    <path fill-rule="evenodd" clip-rule="evenodd" d="M81.7953 42.9249L81.7953 45.0572L83.6419 46.1234L85.4886 45.0572L85.4886 42.9249L83.6419 41.8588L81.7953 42.9249ZM83.6419 41.18L81.2075 42.5856L81.2075 45.3966L83.6419 46.8021L86.0764 45.3966L86.0764 42.5856L83.6419 41.18Z" fill="#6FB327"/>
    <path fill-rule="evenodd" clip-rule="evenodd" d="M82.2375 43.0828L82.2375 44.7847L83.7113 45.6356L85.1851 44.7847L85.1851 43.0828L83.7113 42.2319L82.2375 43.0828ZM83.7113 41.6902L81.7684 42.812L81.7684 45.0555L83.7113 46.1773L85.6543 45.0555L85.6543 42.812L83.7113 41.6902Z" fill="#6FB327"/>
    <defs>
        <linearGradient id="paint0_linear_0_1" x1="6.30898e-08" y1="36.5455" x2="288.198" y2="33.5076" gradientUnits="userSpaceOnUse">
            <stop stop-color="#393A3E"/>
            <stop offset="0.5" stop-color="#3A4855"/>
            <stop offset="1" stop-color="#449D9D"/>
        </linearGradient>
    </defs>
</svg>
